<mxfile host="app.diagrams.net" modified="2024-03-23T17:45:01.530Z" agent="Mozilla/5.0 (Windows NT 10.0; Win64; x64) AppleWebKit/537.36 (KHTML, like Gecko) Chrome/122.0.0.0 Safari/537.36 Edg/122.0.0.0" etag="aDCBRE73zz29HhQCUchg" version="24.1.0" type="device">
  <diagram id="C5RBs43oDa-KdzZeNtuy" name="Page-1">
    <mxGraphModel dx="1741" dy="833" grid="1" gridSize="10" guides="1" tooltips="1" connect="1" arrows="1" fold="1" page="1" pageScale="1" pageWidth="827" pageHeight="1169" math="0" shadow="0">
      <root>
        <mxCell id="WIyWlLk6GJQsqaUBKTNV-0" />
        <mxCell id="WIyWlLk6GJQsqaUBKTNV-1" parent="WIyWlLk6GJQsqaUBKTNV-0" />
        <mxCell id="hQIfWsh5EDfRWJ5MVWAS-14" style="edgeStyle=none;curved=1;rounded=0;orthogonalLoop=1;jettySize=auto;html=1;exitX=0.5;exitY=1;exitDx=0;exitDy=0;fontSize=12;startSize=8;endSize=8;" edge="1" parent="WIyWlLk6GJQsqaUBKTNV-1" source="hQIfWsh5EDfRWJ5MVWAS-0" target="hQIfWsh5EDfRWJ5MVWAS-1">
          <mxGeometry relative="1" as="geometry" />
        </mxCell>
        <mxCell id="hQIfWsh5EDfRWJ5MVWAS-0" value="Начало" style="ellipse;whiteSpace=wrap;html=1;" vertex="1" parent="WIyWlLk6GJQsqaUBKTNV-1">
          <mxGeometry x="70" y="10" width="140" height="60" as="geometry" />
        </mxCell>
        <mxCell id="hQIfWsh5EDfRWJ5MVWAS-8" style="edgeStyle=none;curved=1;rounded=0;orthogonalLoop=1;jettySize=auto;html=1;exitX=0.5;exitY=1;exitDx=0;exitDy=0;fontSize=12;startSize=8;endSize=8;" edge="1" parent="WIyWlLk6GJQsqaUBKTNV-1" source="hQIfWsh5EDfRWJ5MVWAS-1" target="hQIfWsh5EDfRWJ5MVWAS-25">
          <mxGeometry relative="1" as="geometry">
            <mxPoint x="90" y="210" as="targetPoint" />
          </mxGeometry>
        </mxCell>
        <mxCell id="hQIfWsh5EDfRWJ5MVWAS-9" style="edgeStyle=none;curved=1;rounded=0;orthogonalLoop=1;jettySize=auto;html=1;exitX=0.5;exitY=1;exitDx=0;exitDy=0;entryX=0.25;entryY=0;entryDx=0;entryDy=0;fontSize=12;startSize=8;endSize=8;" edge="1" parent="WIyWlLk6GJQsqaUBKTNV-1" source="hQIfWsh5EDfRWJ5MVWAS-1" target="hQIfWsh5EDfRWJ5MVWAS-26">
          <mxGeometry relative="1" as="geometry">
            <mxPoint x="180" y="210" as="targetPoint" />
          </mxGeometry>
        </mxCell>
        <mxCell id="hQIfWsh5EDfRWJ5MVWAS-1" value="Окно входа" style="rounded=1;whiteSpace=wrap;html=1;" vertex="1" parent="WIyWlLk6GJQsqaUBKTNV-1">
          <mxGeometry x="75" y="110" width="130" height="40" as="geometry" />
        </mxCell>
        <mxCell id="hQIfWsh5EDfRWJ5MVWAS-11" style="edgeStyle=none;curved=1;rounded=0;orthogonalLoop=1;jettySize=auto;html=1;exitX=0.85;exitY=1.035;exitDx=0;exitDy=0;fontSize=12;startSize=8;endSize=8;entryX=0.5;entryY=0;entryDx=0;entryDy=0;exitPerimeter=0;" edge="1" parent="WIyWlLk6GJQsqaUBKTNV-1" source="hQIfWsh5EDfRWJ5MVWAS-25" target="hQIfWsh5EDfRWJ5MVWAS-4">
          <mxGeometry relative="1" as="geometry">
            <mxPoint x="130" y="250" as="targetPoint" />
            <mxPoint x="30" y="230" as="sourcePoint" />
          </mxGeometry>
        </mxCell>
        <mxCell id="hQIfWsh5EDfRWJ5MVWAS-10" style="edgeStyle=none;curved=1;rounded=0;orthogonalLoop=1;jettySize=auto;html=1;exitX=0;exitY=1;exitDx=0;exitDy=0;fontSize=12;startSize=8;endSize=8;entryX=0.5;entryY=0;entryDx=0;entryDy=0;" edge="1" parent="WIyWlLk6GJQsqaUBKTNV-1" source="hQIfWsh5EDfRWJ5MVWAS-26" target="hQIfWsh5EDfRWJ5MVWAS-4">
          <mxGeometry relative="1" as="geometry">
            <mxPoint x="130" y="250" as="targetPoint" />
            <mxPoint x="240" y="230" as="sourcePoint" />
          </mxGeometry>
        </mxCell>
        <mxCell id="hQIfWsh5EDfRWJ5MVWAS-6" style="edgeStyle=none;curved=1;rounded=0;orthogonalLoop=1;jettySize=auto;html=1;fontSize=12;startSize=8;endSize=8;entryX=1;entryY=0.5;entryDx=0;entryDy=0;exitX=1;exitY=0.5;exitDx=0;exitDy=0;" edge="1" parent="WIyWlLk6GJQsqaUBKTNV-1" source="hQIfWsh5EDfRWJ5MVWAS-12" target="hQIfWsh5EDfRWJ5MVWAS-1">
          <mxGeometry relative="1" as="geometry">
            <mxPoint x="270" y="130" as="targetPoint" />
            <mxPoint x="250" y="350" as="sourcePoint" />
            <Array as="points">
              <mxPoint x="370" y="300" />
              <mxPoint x="360" y="250" />
              <mxPoint x="340" y="160" />
            </Array>
          </mxGeometry>
        </mxCell>
        <mxCell id="hQIfWsh5EDfRWJ5MVWAS-13" style="edgeStyle=none;curved=1;rounded=0;orthogonalLoop=1;jettySize=auto;html=1;exitX=1;exitY=0.5;exitDx=0;exitDy=0;entryX=0;entryY=0.5;entryDx=0;entryDy=0;fontSize=12;startSize=8;endSize=8;" edge="1" parent="WIyWlLk6GJQsqaUBKTNV-1" source="hQIfWsh5EDfRWJ5MVWAS-4" target="hQIfWsh5EDfRWJ5MVWAS-12">
          <mxGeometry relative="1" as="geometry" />
        </mxCell>
        <mxCell id="hQIfWsh5EDfRWJ5MVWAS-15" style="edgeStyle=none;curved=1;rounded=0;orthogonalLoop=1;jettySize=auto;html=1;exitX=0.5;exitY=1;exitDx=0;exitDy=0;fontSize=12;startSize=8;endSize=8;entryX=0.5;entryY=0;entryDx=0;entryDy=0;" edge="1" parent="WIyWlLk6GJQsqaUBKTNV-1" source="hQIfWsh5EDfRWJ5MVWAS-4" target="hQIfWsh5EDfRWJ5MVWAS-17">
          <mxGeometry relative="1" as="geometry">
            <mxPoint x="137.14285714285734" y="420" as="targetPoint" />
          </mxGeometry>
        </mxCell>
        <mxCell id="hQIfWsh5EDfRWJ5MVWAS-4" value="Успешная авторизация?" style="rhombus;whiteSpace=wrap;html=1;" vertex="1" parent="WIyWlLk6GJQsqaUBKTNV-1">
          <mxGeometry x="75" y="270" width="105" height="100" as="geometry" />
        </mxCell>
        <mxCell id="hQIfWsh5EDfRWJ5MVWAS-12" value="Сообщение об ошибке" style="rounded=1;whiteSpace=wrap;html=1;" vertex="1" parent="WIyWlLk6GJQsqaUBKTNV-1">
          <mxGeometry x="230" y="300" width="120" height="60" as="geometry" />
        </mxCell>
        <mxCell id="hQIfWsh5EDfRWJ5MVWAS-19" style="edgeStyle=none;curved=1;rounded=0;orthogonalLoop=1;jettySize=auto;html=1;exitX=0.5;exitY=1;exitDx=0;exitDy=0;fontSize=12;startSize=8;endSize=8;" edge="1" parent="WIyWlLk6GJQsqaUBKTNV-1" source="hQIfWsh5EDfRWJ5MVWAS-17" target="hQIfWsh5EDfRWJ5MVWAS-18">
          <mxGeometry relative="1" as="geometry" />
        </mxCell>
        <mxCell id="hQIfWsh5EDfRWJ5MVWAS-17" value="Главный экран" style="rounded=1;whiteSpace=wrap;html=1;" vertex="1" parent="WIyWlLk6GJQsqaUBKTNV-1">
          <mxGeometry x="70" y="420" width="118.75" height="40" as="geometry" />
        </mxCell>
        <mxCell id="hQIfWsh5EDfRWJ5MVWAS-45" style="edgeStyle=none;curved=1;rounded=0;orthogonalLoop=1;jettySize=auto;html=1;exitX=0.5;exitY=1;exitDx=0;exitDy=0;entryX=0.5;entryY=0;entryDx=0;entryDy=0;fontSize=12;startSize=8;endSize=8;" edge="1" parent="WIyWlLk6GJQsqaUBKTNV-1" source="hQIfWsh5EDfRWJ5MVWAS-18" target="hQIfWsh5EDfRWJ5MVWAS-20">
          <mxGeometry relative="1" as="geometry" />
        </mxCell>
        <mxCell id="hQIfWsh5EDfRWJ5MVWAS-18" value="Нажатие на &quot;Переводы&quot;" style="rounded=0;whiteSpace=wrap;html=1;" vertex="1" parent="WIyWlLk6GJQsqaUBKTNV-1">
          <mxGeometry x="71.25" y="500" width="118.75" height="40" as="geometry" />
        </mxCell>
        <mxCell id="hQIfWsh5EDfRWJ5MVWAS-44" style="edgeStyle=none;curved=1;rounded=0;orthogonalLoop=1;jettySize=auto;html=1;exitX=0.5;exitY=1;exitDx=0;exitDy=0;entryX=0.5;entryY=0;entryDx=0;entryDy=0;fontSize=12;startSize=8;endSize=8;" edge="1" parent="WIyWlLk6GJQsqaUBKTNV-1" source="hQIfWsh5EDfRWJ5MVWAS-20" target="hQIfWsh5EDfRWJ5MVWAS-21">
          <mxGeometry relative="1" as="geometry" />
        </mxCell>
        <mxCell id="hQIfWsh5EDfRWJ5MVWAS-20" value="Экран со счетами" style="rounded=1;whiteSpace=wrap;html=1;" vertex="1" parent="WIyWlLk6GJQsqaUBKTNV-1">
          <mxGeometry x="71.25" y="564.5" width="118.75" height="40" as="geometry" />
        </mxCell>
        <mxCell id="hQIfWsh5EDfRWJ5MVWAS-43" style="edgeStyle=none;curved=1;rounded=0;orthogonalLoop=1;jettySize=auto;html=1;exitX=0.5;exitY=1;exitDx=0;exitDy=0;entryX=0.5;entryY=0;entryDx=0;entryDy=0;fontSize=12;startSize=8;endSize=8;" edge="1" parent="WIyWlLk6GJQsqaUBKTNV-1" source="hQIfWsh5EDfRWJ5MVWAS-21" target="hQIfWsh5EDfRWJ5MVWAS-22">
          <mxGeometry relative="1" as="geometry" />
        </mxCell>
        <mxCell id="hQIfWsh5EDfRWJ5MVWAS-21" value="Нажатие на счёт" style="rounded=0;whiteSpace=wrap;html=1;" vertex="1" parent="WIyWlLk6GJQsqaUBKTNV-1">
          <mxGeometry x="71.24999999999999" y="630" width="118.75" height="40" as="geometry" />
        </mxCell>
        <mxCell id="hQIfWsh5EDfRWJ5MVWAS-42" style="edgeStyle=none;curved=1;rounded=0;orthogonalLoop=1;jettySize=auto;html=1;exitX=0;exitY=0.5;exitDx=0;exitDy=0;entryX=1;entryY=0.5;entryDx=0;entryDy=0;fontSize=12;startSize=8;endSize=8;" edge="1" parent="WIyWlLk6GJQsqaUBKTNV-1" source="hQIfWsh5EDfRWJ5MVWAS-22" target="hQIfWsh5EDfRWJ5MVWAS-23">
          <mxGeometry relative="1" as="geometry" />
        </mxCell>
        <mxCell id="hQIfWsh5EDfRWJ5MVWAS-22" value="Экран счёта" style="rounded=1;whiteSpace=wrap;html=1;" vertex="1" parent="WIyWlLk6GJQsqaUBKTNV-1">
          <mxGeometry x="71.25" y="700" width="118.75" height="40" as="geometry" />
        </mxCell>
        <mxCell id="hQIfWsh5EDfRWJ5MVWAS-41" style="edgeStyle=none;curved=1;rounded=0;orthogonalLoop=1;jettySize=auto;html=1;exitX=0.5;exitY=0;exitDx=0;exitDy=0;entryX=0.5;entryY=1;entryDx=0;entryDy=0;fontSize=12;startSize=8;endSize=8;" edge="1" parent="WIyWlLk6GJQsqaUBKTNV-1" source="hQIfWsh5EDfRWJ5MVWAS-23" target="hQIfWsh5EDfRWJ5MVWAS-24">
          <mxGeometry relative="1" as="geometry" />
        </mxCell>
        <mxCell id="hQIfWsh5EDfRWJ5MVWAS-23" value="Нажатие на &quot;Перевод&quot;" style="rounded=0;whiteSpace=wrap;html=1;" vertex="1" parent="WIyWlLk6GJQsqaUBKTNV-1">
          <mxGeometry x="-70.00000000000001" y="700" width="118.75" height="40" as="geometry" />
        </mxCell>
        <mxCell id="hQIfWsh5EDfRWJ5MVWAS-39" style="edgeStyle=none;curved=1;rounded=0;orthogonalLoop=1;jettySize=auto;html=1;exitX=0.5;exitY=0;exitDx=0;exitDy=0;entryX=0.5;entryY=1;entryDx=0;entryDy=0;fontSize=12;startSize=8;endSize=8;" edge="1" parent="WIyWlLk6GJQsqaUBKTNV-1" source="hQIfWsh5EDfRWJ5MVWAS-24" target="hQIfWsh5EDfRWJ5MVWAS-28">
          <mxGeometry relative="1" as="geometry" />
        </mxCell>
        <mxCell id="hQIfWsh5EDfRWJ5MVWAS-40" style="edgeStyle=none;curved=1;rounded=0;orthogonalLoop=1;jettySize=auto;html=1;exitX=0;exitY=0.5;exitDx=0;exitDy=0;entryX=0.5;entryY=1;entryDx=0;entryDy=0;fontSize=12;startSize=8;endSize=8;" edge="1" parent="WIyWlLk6GJQsqaUBKTNV-1" source="hQIfWsh5EDfRWJ5MVWAS-24" target="hQIfWsh5EDfRWJ5MVWAS-27">
          <mxGeometry relative="1" as="geometry" />
        </mxCell>
        <mxCell id="hQIfWsh5EDfRWJ5MVWAS-24" value="Экран перевода" style="rounded=1;whiteSpace=wrap;html=1;" vertex="1" parent="WIyWlLk6GJQsqaUBKTNV-1">
          <mxGeometry x="-70" y="630" width="118.75" height="40" as="geometry" />
        </mxCell>
        <mxCell id="hQIfWsh5EDfRWJ5MVWAS-25" value="Ввод логина" style="shape=parallelogram;perimeter=parallelogramPerimeter;whiteSpace=wrap;html=1;fixedSize=1;" vertex="1" parent="WIyWlLk6GJQsqaUBKTNV-1">
          <mxGeometry x="-44.99999999999999" y="180" width="120" height="60" as="geometry" />
        </mxCell>
        <mxCell id="hQIfWsh5EDfRWJ5MVWAS-26" value="Ввод пароля" style="shape=parallelogram;perimeter=parallelogramPerimeter;whiteSpace=wrap;html=1;fixedSize=1;" vertex="1" parent="WIyWlLk6GJQsqaUBKTNV-1">
          <mxGeometry x="190" y="180" width="120" height="60" as="geometry" />
        </mxCell>
        <mxCell id="hQIfWsh5EDfRWJ5MVWAS-37" style="edgeStyle=none;curved=1;rounded=0;orthogonalLoop=1;jettySize=auto;html=1;exitX=0.5;exitY=0;exitDx=0;exitDy=0;entryX=0.5;entryY=1;entryDx=0;entryDy=0;fontSize=12;startSize=8;endSize=8;" edge="1" parent="WIyWlLk6GJQsqaUBKTNV-1" source="hQIfWsh5EDfRWJ5MVWAS-27" target="hQIfWsh5EDfRWJ5MVWAS-29">
          <mxGeometry relative="1" as="geometry" />
        </mxCell>
        <mxCell id="hQIfWsh5EDfRWJ5MVWAS-27" value="Ввод суммы перевода" style="shape=parallelogram;perimeter=parallelogramPerimeter;whiteSpace=wrap;html=1;fixedSize=1;" vertex="1" parent="WIyWlLk6GJQsqaUBKTNV-1">
          <mxGeometry x="-210" y="540" width="120" height="60" as="geometry" />
        </mxCell>
        <mxCell id="hQIfWsh5EDfRWJ5MVWAS-38" style="edgeStyle=none;curved=1;rounded=0;orthogonalLoop=1;jettySize=auto;html=1;exitX=0.5;exitY=0;exitDx=0;exitDy=0;fontSize=12;startSize=8;endSize=8;" edge="1" parent="WIyWlLk6GJQsqaUBKTNV-1" source="hQIfWsh5EDfRWJ5MVWAS-28">
          <mxGeometry relative="1" as="geometry">
            <mxPoint x="-150" y="480" as="targetPoint" />
          </mxGeometry>
        </mxCell>
        <mxCell id="hQIfWsh5EDfRWJ5MVWAS-28" value="Ввод карты получателя" style="shape=parallelogram;perimeter=parallelogramPerimeter;whiteSpace=wrap;html=1;fixedSize=1;" vertex="1" parent="WIyWlLk6GJQsqaUBKTNV-1">
          <mxGeometry x="-70" y="540" width="120" height="60" as="geometry" />
        </mxCell>
        <mxCell id="hQIfWsh5EDfRWJ5MVWAS-33" style="edgeStyle=none;curved=1;rounded=0;orthogonalLoop=1;jettySize=auto;html=1;exitX=0.5;exitY=0;exitDx=0;exitDy=0;entryX=0.5;entryY=1;entryDx=0;entryDy=0;fontSize=12;startSize=8;endSize=8;" edge="1" parent="WIyWlLk6GJQsqaUBKTNV-1" source="hQIfWsh5EDfRWJ5MVWAS-29" target="hQIfWsh5EDfRWJ5MVWAS-32">
          <mxGeometry relative="1" as="geometry" />
        </mxCell>
        <mxCell id="hQIfWsh5EDfRWJ5MVWAS-49" style="edgeStyle=none;curved=1;rounded=0;orthogonalLoop=1;jettySize=auto;html=1;exitX=0;exitY=0.5;exitDx=0;exitDy=0;entryX=1;entryY=0;entryDx=0;entryDy=0;fontSize=12;startSize=8;endSize=8;" edge="1" parent="WIyWlLk6GJQsqaUBKTNV-1" source="hQIfWsh5EDfRWJ5MVWAS-29" target="hQIfWsh5EDfRWJ5MVWAS-48">
          <mxGeometry relative="1" as="geometry" />
        </mxCell>
        <mxCell id="hQIfWsh5EDfRWJ5MVWAS-29" value="Успешный платёж?" style="rhombus;whiteSpace=wrap;html=1;" vertex="1" parent="WIyWlLk6GJQsqaUBKTNV-1">
          <mxGeometry x="-196" y="395" width="95" height="90" as="geometry" />
        </mxCell>
        <mxCell id="hQIfWsh5EDfRWJ5MVWAS-30" value="Нет" style="text;html=1;align=center;verticalAlign=middle;whiteSpace=wrap;rounded=0;fontSize=16;" vertex="1" parent="WIyWlLk6GJQsqaUBKTNV-1">
          <mxGeometry x="170" y="280" width="60" height="30" as="geometry" />
        </mxCell>
        <mxCell id="hQIfWsh5EDfRWJ5MVWAS-31" value="Да" style="text;html=1;align=center;verticalAlign=middle;whiteSpace=wrap;rounded=0;fontSize=16;" vertex="1" parent="WIyWlLk6GJQsqaUBKTNV-1">
          <mxGeometry x="140" y="370" width="60" height="30" as="geometry" />
        </mxCell>
        <mxCell id="hQIfWsh5EDfRWJ5MVWAS-36" style="edgeStyle=none;curved=1;rounded=0;orthogonalLoop=1;jettySize=auto;html=1;exitX=0.5;exitY=0;exitDx=0;exitDy=0;entryX=0.5;entryY=1;entryDx=0;entryDy=0;fontSize=12;startSize=8;endSize=8;" edge="1" parent="WIyWlLk6GJQsqaUBKTNV-1" source="hQIfWsh5EDfRWJ5MVWAS-32" target="hQIfWsh5EDfRWJ5MVWAS-35">
          <mxGeometry relative="1" as="geometry" />
        </mxCell>
        <mxCell id="hQIfWsh5EDfRWJ5MVWAS-32" value="Экран завершения" style="rounded=1;whiteSpace=wrap;html=1;" vertex="1" parent="WIyWlLk6GJQsqaUBKTNV-1">
          <mxGeometry x="-207" y="320" width="117" height="40" as="geometry" />
        </mxCell>
        <mxCell id="hQIfWsh5EDfRWJ5MVWAS-35" value="Конец" style="ellipse;whiteSpace=wrap;html=1;" vertex="1" parent="WIyWlLk6GJQsqaUBKTNV-1">
          <mxGeometry x="-220" y="200" width="140" height="60" as="geometry" />
        </mxCell>
        <mxCell id="hQIfWsh5EDfRWJ5MVWAS-46" value="Да" style="text;html=1;align=center;verticalAlign=middle;whiteSpace=wrap;rounded=0;fontSize=16;" vertex="1" parent="WIyWlLk6GJQsqaUBKTNV-1">
          <mxGeometry x="-140" y="365" width="60" height="30" as="geometry" />
        </mxCell>
        <mxCell id="hQIfWsh5EDfRWJ5MVWAS-47" value="Нет" style="text;html=1;align=center;verticalAlign=middle;whiteSpace=wrap;rounded=0;fontSize=16;" vertex="1" parent="WIyWlLk6GJQsqaUBKTNV-1">
          <mxGeometry x="-267" y="400" width="60" height="30" as="geometry" />
        </mxCell>
        <mxCell id="hQIfWsh5EDfRWJ5MVWAS-48" value="Сообщение об ошибке" style="rounded=1;whiteSpace=wrap;html=1;" vertex="1" parent="WIyWlLk6GJQsqaUBKTNV-1">
          <mxGeometry x="-376" y="450" width="120" height="60" as="geometry" />
        </mxCell>
        <mxCell id="hQIfWsh5EDfRWJ5MVWAS-50" style="edgeStyle=none;curved=1;rounded=0;orthogonalLoop=1;jettySize=auto;html=1;exitX=0.5;exitY=1;exitDx=0;exitDy=0;entryX=0;entryY=0.5;entryDx=0;entryDy=0;fontSize=12;startSize=8;endSize=8;" edge="1" parent="WIyWlLk6GJQsqaUBKTNV-1" source="hQIfWsh5EDfRWJ5MVWAS-48" target="hQIfWsh5EDfRWJ5MVWAS-24">
          <mxGeometry relative="1" as="geometry">
            <Array as="points">
              <mxPoint x="-310" y="680" />
            </Array>
          </mxGeometry>
        </mxCell>
        <mxCell id="hQIfWsh5EDfRWJ5MVWAS-51" style="edgeStyle=none;curved=1;rounded=0;orthogonalLoop=1;jettySize=auto;html=1;exitX=0.5;exitY=1;exitDx=0;exitDy=0;fontSize=12;startSize=8;endSize=8;" edge="1" parent="WIyWlLk6GJQsqaUBKTNV-1" source="hQIfWsh5EDfRWJ5MVWAS-52" target="hQIfWsh5EDfRWJ5MVWAS-55">
          <mxGeometry relative="1" as="geometry" />
        </mxCell>
        <mxCell id="hQIfWsh5EDfRWJ5MVWAS-52" value="Начало" style="ellipse;whiteSpace=wrap;html=1;" vertex="1" parent="WIyWlLk6GJQsqaUBKTNV-1">
          <mxGeometry x="766" y="20" width="140" height="60" as="geometry" />
        </mxCell>
        <mxCell id="hQIfWsh5EDfRWJ5MVWAS-53" style="edgeStyle=none;curved=1;rounded=0;orthogonalLoop=1;jettySize=auto;html=1;exitX=0.5;exitY=1;exitDx=0;exitDy=0;fontSize=12;startSize=8;endSize=8;" edge="1" parent="WIyWlLk6GJQsqaUBKTNV-1" source="hQIfWsh5EDfRWJ5MVWAS-55" target="hQIfWsh5EDfRWJ5MVWAS-78">
          <mxGeometry relative="1" as="geometry">
            <mxPoint x="786" y="220" as="targetPoint" />
          </mxGeometry>
        </mxCell>
        <mxCell id="hQIfWsh5EDfRWJ5MVWAS-54" style="edgeStyle=none;curved=1;rounded=0;orthogonalLoop=1;jettySize=auto;html=1;exitX=0.5;exitY=1;exitDx=0;exitDy=0;entryX=0.25;entryY=0;entryDx=0;entryDy=0;fontSize=12;startSize=8;endSize=8;" edge="1" parent="WIyWlLk6GJQsqaUBKTNV-1" source="hQIfWsh5EDfRWJ5MVWAS-55" target="hQIfWsh5EDfRWJ5MVWAS-79">
          <mxGeometry relative="1" as="geometry">
            <mxPoint x="876" y="220" as="targetPoint" />
          </mxGeometry>
        </mxCell>
        <mxCell id="hQIfWsh5EDfRWJ5MVWAS-55" value="Окно входа" style="rounded=1;whiteSpace=wrap;html=1;" vertex="1" parent="WIyWlLk6GJQsqaUBKTNV-1">
          <mxGeometry x="771" y="120" width="130" height="40" as="geometry" />
        </mxCell>
        <mxCell id="hQIfWsh5EDfRWJ5MVWAS-56" style="edgeStyle=none;curved=1;rounded=0;orthogonalLoop=1;jettySize=auto;html=1;exitX=0.85;exitY=1.035;exitDx=0;exitDy=0;fontSize=12;startSize=8;endSize=8;entryX=0.5;entryY=0;entryDx=0;entryDy=0;exitPerimeter=0;" edge="1" parent="WIyWlLk6GJQsqaUBKTNV-1" source="hQIfWsh5EDfRWJ5MVWAS-78" target="hQIfWsh5EDfRWJ5MVWAS-61">
          <mxGeometry relative="1" as="geometry">
            <mxPoint x="826" y="260" as="targetPoint" />
            <mxPoint x="726" y="240" as="sourcePoint" />
          </mxGeometry>
        </mxCell>
        <mxCell id="hQIfWsh5EDfRWJ5MVWAS-57" style="edgeStyle=none;curved=1;rounded=0;orthogonalLoop=1;jettySize=auto;html=1;exitX=0;exitY=1;exitDx=0;exitDy=0;fontSize=12;startSize=8;endSize=8;entryX=0.5;entryY=0;entryDx=0;entryDy=0;" edge="1" parent="WIyWlLk6GJQsqaUBKTNV-1" source="hQIfWsh5EDfRWJ5MVWAS-79" target="hQIfWsh5EDfRWJ5MVWAS-61">
          <mxGeometry relative="1" as="geometry">
            <mxPoint x="826" y="260" as="targetPoint" />
            <mxPoint x="936" y="240" as="sourcePoint" />
          </mxGeometry>
        </mxCell>
        <mxCell id="hQIfWsh5EDfRWJ5MVWAS-58" style="edgeStyle=none;curved=1;rounded=0;orthogonalLoop=1;jettySize=auto;html=1;fontSize=12;startSize=8;endSize=8;exitX=0;exitY=0.5;exitDx=0;exitDy=0;entryX=0;entryY=0.5;entryDx=0;entryDy=0;" edge="1" parent="WIyWlLk6GJQsqaUBKTNV-1" source="hQIfWsh5EDfRWJ5MVWAS-62" target="hQIfWsh5EDfRWJ5MVWAS-55">
          <mxGeometry relative="1" as="geometry">
            <mxPoint x="710" y="140" as="targetPoint" />
            <mxPoint x="946" y="360" as="sourcePoint" />
            <Array as="points">
              <mxPoint x="540" y="270" />
              <mxPoint x="550" y="200" />
              <mxPoint x="570" y="150" />
              <mxPoint x="640" y="130" />
            </Array>
          </mxGeometry>
        </mxCell>
        <mxCell id="hQIfWsh5EDfRWJ5MVWAS-60" style="edgeStyle=none;curved=1;rounded=0;orthogonalLoop=1;jettySize=auto;html=1;exitX=0.5;exitY=1;exitDx=0;exitDy=0;fontSize=12;startSize=8;endSize=8;entryX=0.5;entryY=0;entryDx=0;entryDy=0;" edge="1" parent="WIyWlLk6GJQsqaUBKTNV-1" source="hQIfWsh5EDfRWJ5MVWAS-61" target="hQIfWsh5EDfRWJ5MVWAS-64">
          <mxGeometry relative="1" as="geometry">
            <mxPoint x="833.1428571428573" y="430" as="targetPoint" />
          </mxGeometry>
        </mxCell>
        <mxCell id="hQIfWsh5EDfRWJ5MVWAS-119" style="edgeStyle=none;curved=1;rounded=0;orthogonalLoop=1;jettySize=auto;html=1;exitX=0;exitY=0.5;exitDx=0;exitDy=0;entryX=1;entryY=0.5;entryDx=0;entryDy=0;fontSize=12;startSize=8;endSize=8;" edge="1" parent="WIyWlLk6GJQsqaUBKTNV-1" source="hQIfWsh5EDfRWJ5MVWAS-61" target="hQIfWsh5EDfRWJ5MVWAS-62">
          <mxGeometry relative="1" as="geometry" />
        </mxCell>
        <mxCell id="hQIfWsh5EDfRWJ5MVWAS-61" value="Успешная авторизация?" style="rhombus;whiteSpace=wrap;html=1;" vertex="1" parent="WIyWlLk6GJQsqaUBKTNV-1">
          <mxGeometry x="771" y="280" width="105" height="100" as="geometry" />
        </mxCell>
        <mxCell id="hQIfWsh5EDfRWJ5MVWAS-62" value="Сообщение об ошибке" style="rounded=1;whiteSpace=wrap;html=1;" vertex="1" parent="WIyWlLk6GJQsqaUBKTNV-1">
          <mxGeometry x="600" y="290" width="120" height="60" as="geometry" />
        </mxCell>
        <mxCell id="hQIfWsh5EDfRWJ5MVWAS-63" style="edgeStyle=none;curved=1;rounded=0;orthogonalLoop=1;jettySize=auto;html=1;exitX=0.5;exitY=1;exitDx=0;exitDy=0;fontSize=12;startSize=8;endSize=8;" edge="1" parent="WIyWlLk6GJQsqaUBKTNV-1" source="hQIfWsh5EDfRWJ5MVWAS-64" target="hQIfWsh5EDfRWJ5MVWAS-66">
          <mxGeometry relative="1" as="geometry" />
        </mxCell>
        <mxCell id="hQIfWsh5EDfRWJ5MVWAS-64" value="Главный экран" style="rounded=1;whiteSpace=wrap;html=1;" vertex="1" parent="WIyWlLk6GJQsqaUBKTNV-1">
          <mxGeometry x="766" y="430" width="118.75" height="40" as="geometry" />
        </mxCell>
        <mxCell id="hQIfWsh5EDfRWJ5MVWAS-65" style="edgeStyle=none;curved=1;rounded=0;orthogonalLoop=1;jettySize=auto;html=1;exitX=0.5;exitY=1;exitDx=0;exitDy=0;entryX=0.5;entryY=0;entryDx=0;entryDy=0;fontSize=12;startSize=8;endSize=8;" edge="1" parent="WIyWlLk6GJQsqaUBKTNV-1" source="hQIfWsh5EDfRWJ5MVWAS-66" target="hQIfWsh5EDfRWJ5MVWAS-68">
          <mxGeometry relative="1" as="geometry" />
        </mxCell>
        <mxCell id="hQIfWsh5EDfRWJ5MVWAS-66" value="Нажатие на &quot;Кредиты&quot;" style="rounded=0;whiteSpace=wrap;html=1;" vertex="1" parent="WIyWlLk6GJQsqaUBKTNV-1">
          <mxGeometry x="766" y="540" width="118.75" height="40" as="geometry" />
        </mxCell>
        <mxCell id="hQIfWsh5EDfRWJ5MVWAS-67" style="edgeStyle=none;curved=1;rounded=0;orthogonalLoop=1;jettySize=auto;html=1;exitX=0.5;exitY=1;exitDx=0;exitDy=0;entryX=0.5;entryY=0;entryDx=0;entryDy=0;fontSize=12;startSize=8;endSize=8;" edge="1" parent="WIyWlLk6GJQsqaUBKTNV-1" source="hQIfWsh5EDfRWJ5MVWAS-68" target="hQIfWsh5EDfRWJ5MVWAS-70">
          <mxGeometry relative="1" as="geometry" />
        </mxCell>
        <mxCell id="hQIfWsh5EDfRWJ5MVWAS-68" value="Экран с информацией о кредитах" style="rounded=1;whiteSpace=wrap;html=1;" vertex="1" parent="WIyWlLk6GJQsqaUBKTNV-1">
          <mxGeometry x="767.25" y="640" width="122.75" height="45.5" as="geometry" />
        </mxCell>
        <mxCell id="hQIfWsh5EDfRWJ5MVWAS-69" style="edgeStyle=none;curved=1;rounded=0;orthogonalLoop=1;jettySize=auto;html=1;exitX=0.5;exitY=1;exitDx=0;exitDy=0;entryX=0.5;entryY=0;entryDx=0;entryDy=0;fontSize=12;startSize=8;endSize=8;" edge="1" parent="WIyWlLk6GJQsqaUBKTNV-1" source="hQIfWsh5EDfRWJ5MVWAS-70" target="hQIfWsh5EDfRWJ5MVWAS-72">
          <mxGeometry relative="1" as="geometry" />
        </mxCell>
        <mxCell id="hQIfWsh5EDfRWJ5MVWAS-70" value="Нажатие на &quot;оформить кредит&quot;" style="rounded=0;whiteSpace=wrap;html=1;" vertex="1" parent="WIyWlLk6GJQsqaUBKTNV-1">
          <mxGeometry x="768.25" y="750" width="118.75" height="40" as="geometry" />
        </mxCell>
        <mxCell id="hQIfWsh5EDfRWJ5MVWAS-120" style="edgeStyle=none;curved=1;rounded=0;orthogonalLoop=1;jettySize=auto;html=1;exitX=1;exitY=0.5;exitDx=0;exitDy=0;entryX=0;entryY=0.75;entryDx=0;entryDy=0;fontSize=12;startSize=8;endSize=8;" edge="1" parent="WIyWlLk6GJQsqaUBKTNV-1" source="hQIfWsh5EDfRWJ5MVWAS-72" target="hQIfWsh5EDfRWJ5MVWAS-115">
          <mxGeometry relative="1" as="geometry" />
        </mxCell>
        <mxCell id="hQIfWsh5EDfRWJ5MVWAS-72" value="Экран оформления" style="rounded=1;whiteSpace=wrap;html=1;" vertex="1" parent="WIyWlLk6GJQsqaUBKTNV-1">
          <mxGeometry x="767.25" y="840" width="118.75" height="40" as="geometry" />
        </mxCell>
        <mxCell id="hQIfWsh5EDfRWJ5MVWAS-78" value="Ввод логина" style="shape=parallelogram;perimeter=parallelogramPerimeter;whiteSpace=wrap;html=1;fixedSize=1;" vertex="1" parent="WIyWlLk6GJQsqaUBKTNV-1">
          <mxGeometry x="651" y="190" width="120" height="60" as="geometry" />
        </mxCell>
        <mxCell id="hQIfWsh5EDfRWJ5MVWAS-79" value="Ввод пароля" style="shape=parallelogram;perimeter=parallelogramPerimeter;whiteSpace=wrap;html=1;fixedSize=1;" vertex="1" parent="WIyWlLk6GJQsqaUBKTNV-1">
          <mxGeometry x="886" y="190" width="120" height="60" as="geometry" />
        </mxCell>
        <mxCell id="hQIfWsh5EDfRWJ5MVWAS-87" value="Нет" style="text;html=1;align=center;verticalAlign=middle;whiteSpace=wrap;rounded=0;fontSize=16;" vertex="1" parent="WIyWlLk6GJQsqaUBKTNV-1">
          <mxGeometry x="730" y="280" width="60" height="30" as="geometry" />
        </mxCell>
        <mxCell id="hQIfWsh5EDfRWJ5MVWAS-88" value="Да" style="text;html=1;align=center;verticalAlign=middle;whiteSpace=wrap;rounded=0;fontSize=16;" vertex="1" parent="WIyWlLk6GJQsqaUBKTNV-1">
          <mxGeometry x="836" y="380" width="60" height="30" as="geometry" />
        </mxCell>
        <mxCell id="hQIfWsh5EDfRWJ5MVWAS-104" style="edgeStyle=none;curved=1;rounded=0;orthogonalLoop=1;jettySize=auto;html=1;exitX=0.5;exitY=0;exitDx=0;exitDy=0;fontSize=12;startSize=8;endSize=8;" edge="1" parent="WIyWlLk6GJQsqaUBKTNV-1" source="hQIfWsh5EDfRWJ5MVWAS-118">
          <mxGeometry relative="1" as="geometry">
            <mxPoint x="1166" y="480" as="targetPoint" />
            <mxPoint x="1306" y="540" as="sourcePoint" />
          </mxGeometry>
        </mxCell>
        <mxCell id="hQIfWsh5EDfRWJ5MVWAS-105" style="edgeStyle=none;curved=1;rounded=0;orthogonalLoop=1;jettySize=auto;html=1;exitX=0.5;exitY=0;exitDx=0;exitDy=0;entryX=0.5;entryY=1;entryDx=0;entryDy=0;fontSize=12;startSize=8;endSize=8;" edge="1" parent="WIyWlLk6GJQsqaUBKTNV-1" source="hQIfWsh5EDfRWJ5MVWAS-107" target="hQIfWsh5EDfRWJ5MVWAS-109">
          <mxGeometry relative="1" as="geometry" />
        </mxCell>
        <mxCell id="hQIfWsh5EDfRWJ5MVWAS-106" style="edgeStyle=none;curved=1;rounded=0;orthogonalLoop=1;jettySize=auto;html=1;exitX=0;exitY=0.5;exitDx=0;exitDy=0;entryX=1;entryY=0.25;entryDx=0;entryDy=0;fontSize=12;startSize=8;endSize=8;" edge="1" parent="WIyWlLk6GJQsqaUBKTNV-1" source="hQIfWsh5EDfRWJ5MVWAS-107" target="hQIfWsh5EDfRWJ5MVWAS-114">
          <mxGeometry relative="1" as="geometry">
            <mxPoint x="1060" y="450" as="targetPoint" />
          </mxGeometry>
        </mxCell>
        <mxCell id="hQIfWsh5EDfRWJ5MVWAS-107" value="Успешный платёж?" style="rhombus;whiteSpace=wrap;html=1;" vertex="1" parent="WIyWlLk6GJQsqaUBKTNV-1">
          <mxGeometry x="1120" y="395" width="95" height="90" as="geometry" />
        </mxCell>
        <mxCell id="hQIfWsh5EDfRWJ5MVWAS-108" style="edgeStyle=none;curved=1;rounded=0;orthogonalLoop=1;jettySize=auto;html=1;exitX=0.5;exitY=0;exitDx=0;exitDy=0;entryX=0.5;entryY=1;entryDx=0;entryDy=0;fontSize=12;startSize=8;endSize=8;" edge="1" parent="WIyWlLk6GJQsqaUBKTNV-1" source="hQIfWsh5EDfRWJ5MVWAS-109" target="hQIfWsh5EDfRWJ5MVWAS-110">
          <mxGeometry relative="1" as="geometry" />
        </mxCell>
        <mxCell id="hQIfWsh5EDfRWJ5MVWAS-109" value="Экран завершения" style="rounded=1;whiteSpace=wrap;html=1;" vertex="1" parent="WIyWlLk6GJQsqaUBKTNV-1">
          <mxGeometry x="1109" y="320" width="117" height="40" as="geometry" />
        </mxCell>
        <mxCell id="hQIfWsh5EDfRWJ5MVWAS-110" value="Конец" style="ellipse;whiteSpace=wrap;html=1;" vertex="1" parent="WIyWlLk6GJQsqaUBKTNV-1">
          <mxGeometry x="1096" y="200" width="140" height="60" as="geometry" />
        </mxCell>
        <mxCell id="hQIfWsh5EDfRWJ5MVWAS-111" value="Да" style="text;html=1;align=center;verticalAlign=middle;whiteSpace=wrap;rounded=0;fontSize=16;" vertex="1" parent="WIyWlLk6GJQsqaUBKTNV-1">
          <mxGeometry x="1176" y="365" width="60" height="30" as="geometry" />
        </mxCell>
        <mxCell id="hQIfWsh5EDfRWJ5MVWAS-112" value="Нет" style="text;html=1;align=center;verticalAlign=middle;whiteSpace=wrap;rounded=0;fontSize=16;" vertex="1" parent="WIyWlLk6GJQsqaUBKTNV-1">
          <mxGeometry x="1060" y="410" width="60" height="30" as="geometry" />
        </mxCell>
        <mxCell id="hQIfWsh5EDfRWJ5MVWAS-113" style="edgeStyle=none;curved=1;rounded=0;orthogonalLoop=1;jettySize=auto;html=1;exitX=0.5;exitY=1;exitDx=0;exitDy=0;entryX=0;entryY=0.5;entryDx=0;entryDy=0;fontSize=12;startSize=8;endSize=8;" edge="1" parent="WIyWlLk6GJQsqaUBKTNV-1" source="hQIfWsh5EDfRWJ5MVWAS-114" target="hQIfWsh5EDfRWJ5MVWAS-117">
          <mxGeometry relative="1" as="geometry">
            <mxPoint x="1000" y="510" as="sourcePoint" />
            <Array as="points">
              <mxPoint x="1006" y="680" />
            </Array>
            <mxPoint x="1246" y="650" as="targetPoint" />
          </mxGeometry>
        </mxCell>
        <mxCell id="hQIfWsh5EDfRWJ5MVWAS-114" value="Сообщение об ошибке" style="rounded=1;whiteSpace=wrap;html=1;" vertex="1" parent="WIyWlLk6GJQsqaUBKTNV-1">
          <mxGeometry x="940" y="440" width="120" height="60" as="geometry" />
        </mxCell>
        <mxCell id="hQIfWsh5EDfRWJ5MVWAS-121" style="edgeStyle=none;curved=1;rounded=0;orthogonalLoop=1;jettySize=auto;html=1;exitX=0.5;exitY=0;exitDx=0;exitDy=0;entryX=0.5;entryY=1;entryDx=0;entryDy=0;fontSize=12;startSize=8;endSize=8;" edge="1" parent="WIyWlLk6GJQsqaUBKTNV-1" source="hQIfWsh5EDfRWJ5MVWAS-115" target="hQIfWsh5EDfRWJ5MVWAS-116">
          <mxGeometry relative="1" as="geometry" />
        </mxCell>
        <mxCell id="hQIfWsh5EDfRWJ5MVWAS-115" value="Ввод данных пользователя" style="shape=parallelogram;perimeter=parallelogramPerimeter;whiteSpace=wrap;html=1;fixedSize=1;" vertex="1" parent="WIyWlLk6GJQsqaUBKTNV-1">
          <mxGeometry x="1176" y="820" width="120" height="60" as="geometry" />
        </mxCell>
        <mxCell id="hQIfWsh5EDfRWJ5MVWAS-123" style="edgeStyle=none;curved=1;rounded=0;orthogonalLoop=1;jettySize=auto;html=1;exitX=0;exitY=0.5;exitDx=0;exitDy=0;entryX=1;entryY=0;entryDx=0;entryDy=0;fontSize=12;startSize=8;endSize=8;" edge="1" parent="WIyWlLk6GJQsqaUBKTNV-1" source="hQIfWsh5EDfRWJ5MVWAS-116" target="hQIfWsh5EDfRWJ5MVWAS-72">
          <mxGeometry relative="1" as="geometry" />
        </mxCell>
        <mxCell id="hQIfWsh5EDfRWJ5MVWAS-116" value="Решение по кредиту?" style="rhombus;whiteSpace=wrap;html=1;" vertex="1" parent="WIyWlLk6GJQsqaUBKTNV-1">
          <mxGeometry x="1192" y="700" width="104" height="100" as="geometry" />
        </mxCell>
        <mxCell id="hQIfWsh5EDfRWJ5MVWAS-126" style="edgeStyle=none;curved=1;rounded=0;orthogonalLoop=1;jettySize=auto;html=1;exitX=0.5;exitY=0;exitDx=0;exitDy=0;entryX=1;entryY=0.75;entryDx=0;entryDy=0;fontSize=12;startSize=8;endSize=8;" edge="1" parent="WIyWlLk6GJQsqaUBKTNV-1" source="hQIfWsh5EDfRWJ5MVWAS-117" target="hQIfWsh5EDfRWJ5MVWAS-118">
          <mxGeometry relative="1" as="geometry" />
        </mxCell>
        <mxCell id="hQIfWsh5EDfRWJ5MVWAS-117" value="Экран зачисления" style="rounded=1;whiteSpace=wrap;html=1;" vertex="1" parent="WIyWlLk6GJQsqaUBKTNV-1">
          <mxGeometry x="1280" y="630" width="118.75" height="40" as="geometry" />
        </mxCell>
        <mxCell id="hQIfWsh5EDfRWJ5MVWAS-118" value="Ввод карты&amp;nbsp;" style="shape=parallelogram;perimeter=parallelogramPerimeter;whiteSpace=wrap;html=1;fixedSize=1;" vertex="1" parent="WIyWlLk6GJQsqaUBKTNV-1">
          <mxGeometry x="1170" y="544.5" width="120" height="60" as="geometry" />
        </mxCell>
        <mxCell id="hQIfWsh5EDfRWJ5MVWAS-122" style="edgeStyle=none;curved=1;rounded=0;orthogonalLoop=1;jettySize=auto;html=1;exitX=1;exitY=0.5;exitDx=0;exitDy=0;entryX=0.393;entryY=1.008;entryDx=0;entryDy=0;entryPerimeter=0;fontSize=12;startSize=8;endSize=8;" edge="1" parent="WIyWlLk6GJQsqaUBKTNV-1" source="hQIfWsh5EDfRWJ5MVWAS-116" target="hQIfWsh5EDfRWJ5MVWAS-117">
          <mxGeometry relative="1" as="geometry" />
        </mxCell>
        <mxCell id="hQIfWsh5EDfRWJ5MVWAS-124" value="Отрицательное" style="text;html=1;align=center;verticalAlign=middle;whiteSpace=wrap;rounded=0;fontSize=16;" vertex="1" parent="WIyWlLk6GJQsqaUBKTNV-1">
          <mxGeometry x="1020" y="740" width="60" height="30" as="geometry" />
        </mxCell>
        <mxCell id="hQIfWsh5EDfRWJ5MVWAS-125" value="Положительное" style="text;html=1;align=center;verticalAlign=middle;whiteSpace=wrap;rounded=0;fontSize=16;" vertex="1" parent="WIyWlLk6GJQsqaUBKTNV-1">
          <mxGeometry x="1338.75" y="710" width="60" height="30" as="geometry" />
        </mxCell>
      </root>
    </mxGraphModel>
  </diagram>
</mxfile>
